<mxfile host="app.diagrams.net" modified="2023-09-18T16:56:40.251Z" agent="Mozilla/5.0 (Windows NT 10.0; Win64; x64) AppleWebKit/537.36 (KHTML, like Gecko) Chrome/114.0.0.0 Safari/537.36" etag="mQ8nRZEXaPZB0w-lK2XI" version="21.7.5" type="device">
  <diagram name="Página-1" id="T1LzsLkTq_WKKPjEtu6v">
    <mxGraphModel dx="1434" dy="788" grid="1" gridSize="10" guides="1" tooltips="1" connect="1" arrows="1" fold="1" page="1" pageScale="1" pageWidth="827" pageHeight="1169" math="0" shadow="0">
      <root>
        <mxCell id="0" />
        <mxCell id="1" parent="0" />
        <mxCell id="khg-mpe09VVCKJnyYj_Z-14" style="edgeStyle=orthogonalEdgeStyle;rounded=0;orthogonalLoop=1;jettySize=auto;html=1;exitX=0.5;exitY=1;exitDx=0;exitDy=0;" edge="1" parent="1" source="khg-mpe09VVCKJnyYj_Z-11">
          <mxGeometry relative="1" as="geometry">
            <mxPoint x="414" y="200" as="targetPoint" />
          </mxGeometry>
        </mxCell>
        <mxCell id="khg-mpe09VVCKJnyYj_Z-11" value="Início" style="ellipse;whiteSpace=wrap;html=1;" vertex="1" parent="1">
          <mxGeometry x="354" y="30" width="120" height="80" as="geometry" />
        </mxCell>
        <mxCell id="khg-mpe09VVCKJnyYj_Z-16" style="edgeStyle=orthogonalEdgeStyle;rounded=0;orthogonalLoop=1;jettySize=auto;html=1;exitX=0;exitY=0;exitDx=70;exitDy=70;exitPerimeter=0;" edge="1" parent="1" source="khg-mpe09VVCKJnyYj_Z-15">
          <mxGeometry relative="1" as="geometry">
            <mxPoint x="414" y="320" as="targetPoint" />
            <Array as="points">
              <mxPoint x="414" y="300" />
              <mxPoint x="414" y="300" />
            </Array>
          </mxGeometry>
        </mxCell>
        <mxCell id="khg-mpe09VVCKJnyYj_Z-15" value="Digite um número" style="shape=display;whiteSpace=wrap;html=1;" vertex="1" parent="1">
          <mxGeometry x="344" y="200" width="140" height="70" as="geometry" />
        </mxCell>
        <mxCell id="khg-mpe09VVCKJnyYj_Z-19" style="edgeStyle=orthogonalEdgeStyle;rounded=0;orthogonalLoop=1;jettySize=auto;html=1;exitX=0.5;exitY=1;exitDx=0;exitDy=0;entryX=0.5;entryY=0;entryDx=0;entryDy=0;" edge="1" parent="1" source="khg-mpe09VVCKJnyYj_Z-17" target="khg-mpe09VVCKJnyYj_Z-18">
          <mxGeometry relative="1" as="geometry" />
        </mxCell>
        <mxCell id="khg-mpe09VVCKJnyYj_Z-17" value="numero" style="shape=manualInput;whiteSpace=wrap;html=1;" vertex="1" parent="1">
          <mxGeometry x="369" y="310" width="90" height="80" as="geometry" />
        </mxCell>
        <mxCell id="khg-mpe09VVCKJnyYj_Z-21" style="edgeStyle=orthogonalEdgeStyle;rounded=0;orthogonalLoop=1;jettySize=auto;html=1;exitX=0.5;exitY=1;exitDx=0;exitDy=0;entryX=0.5;entryY=0;entryDx=0;entryDy=0;" edge="1" parent="1" source="khg-mpe09VVCKJnyYj_Z-18" target="khg-mpe09VVCKJnyYj_Z-20">
          <mxGeometry relative="1" as="geometry" />
        </mxCell>
        <mxCell id="khg-mpe09VVCKJnyYj_Z-18" value="limite = numero + 100" style="rounded=0;whiteSpace=wrap;html=1;" vertex="1" parent="1">
          <mxGeometry x="354" y="450" width="120" height="60" as="geometry" />
        </mxCell>
        <mxCell id="khg-mpe09VVCKJnyYj_Z-26" style="edgeStyle=orthogonalEdgeStyle;rounded=0;orthogonalLoop=1;jettySize=auto;html=1;exitX=0.5;exitY=1;exitDx=0;exitDy=0;entryX=0;entryY=0;entryDx=66.25;entryDy=0;entryPerimeter=0;" edge="1" parent="1" source="khg-mpe09VVCKJnyYj_Z-20" target="khg-mpe09VVCKJnyYj_Z-22">
          <mxGeometry relative="1" as="geometry" />
        </mxCell>
        <mxCell id="khg-mpe09VVCKJnyYj_Z-30" style="edgeStyle=orthogonalEdgeStyle;rounded=0;orthogonalLoop=1;jettySize=auto;html=1;entryX=0;entryY=0;entryDx=66.25;entryDy=0;entryPerimeter=0;" edge="1" parent="1" source="khg-mpe09VVCKJnyYj_Z-20" target="khg-mpe09VVCKJnyYj_Z-32">
          <mxGeometry relative="1" as="geometry">
            <mxPoint x="500" y="860" as="targetPoint" />
            <Array as="points">
              <mxPoint x="560" y="585" />
              <mxPoint x="560" y="860" />
              <mxPoint x="415" y="860" />
            </Array>
          </mxGeometry>
        </mxCell>
        <mxCell id="khg-mpe09VVCKJnyYj_Z-20" value="numero &amp;lt;= limite" style="rhombus;whiteSpace=wrap;html=1;" vertex="1" parent="1">
          <mxGeometry x="320" y="545" width="190" height="80" as="geometry" />
        </mxCell>
        <mxCell id="khg-mpe09VVCKJnyYj_Z-28" value="" style="edgeStyle=orthogonalEdgeStyle;rounded=0;orthogonalLoop=1;jettySize=auto;html=1;" edge="1" parent="1" source="khg-mpe09VVCKJnyYj_Z-22" target="khg-mpe09VVCKJnyYj_Z-27">
          <mxGeometry relative="1" as="geometry" />
        </mxCell>
        <mxCell id="khg-mpe09VVCKJnyYj_Z-22" value="numero" style="shape=display;whiteSpace=wrap;html=1;" vertex="1" parent="1">
          <mxGeometry x="349" y="670" width="130" height="60" as="geometry" />
        </mxCell>
        <mxCell id="khg-mpe09VVCKJnyYj_Z-29" style="edgeStyle=orthogonalEdgeStyle;rounded=0;orthogonalLoop=1;jettySize=auto;html=1;entryX=0;entryY=0.5;entryDx=0;entryDy=0;exitX=0;exitY=0.5;exitDx=0;exitDy=0;" edge="1" parent="1" source="khg-mpe09VVCKJnyYj_Z-27" target="khg-mpe09VVCKJnyYj_Z-20">
          <mxGeometry relative="1" as="geometry">
            <Array as="points">
              <mxPoint x="300" y="810" />
              <mxPoint x="300" y="585" />
            </Array>
          </mxGeometry>
        </mxCell>
        <mxCell id="khg-mpe09VVCKJnyYj_Z-27" value="numero++" style="rounded=0;whiteSpace=wrap;html=1;" vertex="1" parent="1">
          <mxGeometry x="354" y="780" width="120" height="60" as="geometry" />
        </mxCell>
        <mxCell id="khg-mpe09VVCKJnyYj_Z-35" value="" style="edgeStyle=orthogonalEdgeStyle;rounded=0;orthogonalLoop=1;jettySize=auto;html=1;" edge="1" parent="1" source="khg-mpe09VVCKJnyYj_Z-32" target="khg-mpe09VVCKJnyYj_Z-34">
          <mxGeometry relative="1" as="geometry" />
        </mxCell>
        <mxCell id="khg-mpe09VVCKJnyYj_Z-32" value="Processo finalizado!" style="shape=display;whiteSpace=wrap;html=1;size=0.16153846153846155;" vertex="1" parent="1">
          <mxGeometry x="349" y="880" width="130" height="60" as="geometry" />
        </mxCell>
        <mxCell id="khg-mpe09VVCKJnyYj_Z-34" value="fim" style="ellipse;whiteSpace=wrap;html=1;" vertex="1" parent="1">
          <mxGeometry x="354" y="970" width="120" height="80" as="geometry" />
        </mxCell>
      </root>
    </mxGraphModel>
  </diagram>
</mxfile>
